#!OML:ASF H:\BreakDance\Project 1\Capture day 1\Session 1\Male.ASF
:FULLY-SPECIFIED
:DEGREES
431
root 22.5382 14.3265 -10.5268 204.313 -65.4998 -179.94
lowerback 6.3621 -1.07977 12.5734
upperback 8.07224 -1.5562 -0.044179
thorax 4.76477 -0.294314 -7.07446
lowerneck 0.0680441 10.3189 4.03103
upperneck -20.7972 11.8918 -12.1582
head -5.20748 6.06914 -4.89402
rclavicle 5.56597e-015 5.56597e-015
rhumerus -48.3509 4.20015 -65.6998
rradius 20.7503
rwrist 10.6017
rhand -22.2439 -23.9074
rfingers 7.12502
rthumb 4.17325 -53.8462
lclavicle 5.56597e-015 5.56597e-015
lhumerus -33.5621 -33.2002 57.2441
lradius 23.8922
lwrist 38.9517
lhand -30.9996 -6.12246
lfingers 7.12502
lthumb -4.28273 23.8142
rfemur -57.6793 -13.9028 2.60887
rtibia 64.8576
rfoot -36.4958 4.32886
rtoes -41.906
lfemur -53.0692 36.7872 -5.20835
ltibia 97.83
lfoot -9.25422 -13.0897
ltoes -27.6414
432
root 22.3546 14.3328 -10.4819 204.659 -66.1531 -179.955
lowerback 6.55953 -0.952823 12.2973
upperback 8.49555 -1.43992 -0.00320863
thorax 5.14436 -0.225975 -6.88121
lowerneck -0.391795 10.2297 3.4905
upperneck -20.9909 11.7205 -12.0207
head -5.2525 5.99854 -4.75137
rclavicle 1.59028e-014 1.94809e-014
rhumerus -50.6486 5.82593 -66.5751
rradius 19.6277
rwrist 12.5477
rhand -21.374 -23.7634
rfingers 7.12502
rthumb 5.01319 -53.6841
lclavicle 1.59028e-014 1.94809e-014
lhumerus -35.7987 -33.3482 56.4709
lradius 23.1749
lwrist 39.8153
lhand -30.9295 -4.98795
lfingers 7.12502
lthumb -4.2151 24.9501
rfemur -56.5963 -14.4916 2.2538
rtibia 64.1497
rfoot -36.6864 3.91901
rtoes -42.2678
lfemur -55.0235 36.5977 -4.52562
ltibia 97.2488
lfoot -9.44165 -12.5523
ltoes -26.4054
433
root 22.1666 14.3455 -10.4331 204.975 -66.9307 -179.973
lowerback 6.73233 -0.838878 11.9792
upperback 8.90717 -1.34534 0.0663334
thorax 5.51969 -0.174645 -6.63298
lowerneck -0.793988 10.1001 2.87637
upperneck -21.1771 11.5014 -11.8555
head -5.31496 5.91158 -4.59185
rclavicle -3.89618e-014 5.48646e-014
rhumerus -53.1425 7.64647 -68.0018
rradius 18.7186
rwrist 14.5458
rhand -20.3497 -23.3566
rfingers 7.12502
rthumb 6.00224 -53.2516
lclavicle -3.89618e-014 5.48646e-014
lhumerus -38.296 -33.6356 56.0082
lradius 22.6143
lwrist 40.7518
lhand -30.768 -3.91934
lfingers 7.12502
lthumb -4.05915 26.0217
rfemur -55.3352 -15.1126 1.91457
rtibia 63.3151
rfoot -36.7658 3.45697
rtoes -42.5524
lfemur -57.1303 36.3488 -4.05628
ltibia 96.4411
lfoot -9.72351 -12.02
ltoes -25.2681
434
root 21.9741 14.3628 -10.3804 205.278 -67.826 -179.958
lowerback 6.8501 -0.737008 11.6233
upperback 9.27757 -1.26917 0.165589
thorax 5.87548 -0.139544 -6.33133
lowerneck -1.15173 9.96229 2.21079
upperneck -21.3283 11.2802 -11.6825
head -5.37703 5.83066 -4.42283
rclavicle -2.66371e-014 1.74931e-014
rhumerus -55.901 9.65421 -70.0546
rradius 18.1037
rwrist 16.4906
rhand -19.2072 -22.6911
rfingers 7.12502
rthumb 7.10512 -52.5518
lclavicle -2.66371e-014 1.74931e-014
lhumerus -41.0329 -33.883 55.8067
lradius 22.1779
lwrist 41.6501
lhand -30.537 -2.98319
lfingers 7.12502
lthumb -3.83602 26.962
rfemur -53.9834 -15.7982 1.63866
rtibia 62.3888
rfoot -36.724 2.9054
rtoes -42.8446
lfemur -59.4385 36.0669 -3.81705
ltibia 95.4056
lfoot -10.0097 -11.4731
ltoes -24.2932
435
root 21.7764 14.3833 -10.3242 205.508 -68.8268 -179.838
lowerback 6.88076 -0.652233 11.259
upperback 9.61696 -1.22137 0.282679
thorax 6.23997 -0.121336 -6.0061
lowerneck -1.52831 9.84528 1.53393
upperneck -21.4271 11.097 -11.5173
head -5.416 5.77111 -4.25103
rclavicle 2.22639e-014 -6.99722e-014
rhumerus -58.9576 11.8137 -72.8306
rradius 17.8746
rwrist 18.1152
rhand -17.9015 -21.8688
rfingers 7.12502
rthumb 8.3654 -51.6831
lclavicle 2.22639e-014 -6.99722e-014
lhumerus -43.9241 -33.9125 55.7327
lradius 21.8343
lwrist 42.405
lhand -30.2626 -2.24722
lfingers 7.12502
lthumb -3.57101 27.7026
rfemur -52.582 -16.5678 1.46755
rtibia 61.4066
rfoot -36.5501 2.27712
rtoes -43.2303
lfemur -61.9033 35.7763 -3.77336
ltibia 94.1301
lfoot -10.2755 -10.933
ltoes -23.551
